<svg width="546" height="119" xmlns="http://www.w3.org/2000/svg" xmlns:xlink="http://www.w3.org/1999/xlink" overflow="hidden"><defs><filter id="fx0" x="-10%" y="-10%" width="120%" height="120%" filterUnits="userSpaceOnUse" primitiveUnits="userSpaceOnUse"><feComponentTransfer color-interpolation-filters="sRGB"><feFuncR type="discrete" tableValues="0 0"/><feFuncG type="discrete" tableValues="0 0"/><feFuncB type="discrete" tableValues="0 0"/><feFuncA type="linear" slope="0.431373" intercept="0"/></feComponentTransfer><feGaussianBlur stdDeviation="0.925077 0.925077"/></filter><clipPath id="clip1"><rect x="367" y="294" width="546" height="119"/></clipPath><clipPath id="clip2"><rect x="34" y="28" width="145" height="48"/></clipPath><clipPath id="clip3"><rect x="0" y="0" width="213" height="120"/></clipPath></defs><g clip-path="url(#clip1)" transform="translate(-367 -294)"><rect x="369.5" y="296.5" width="542" height="96" stroke="#B4C7E7" stroke-width="1.33333" stroke-miterlimit="8" fill="#B4C7E7"/><g clip-path="url(#clip2)" filter="url(#fx0)" transform="translate(535 293)"><g clip-path="url(#clip3)"><path d="M27.2246-41.8979 27.2246 0 16.3296 0 16.3296-17.5977 13.0688-17.5977 13.0688 0 2.17383 0 2.17383-41.8979 13.0688-41.8979 13.0688-26.9141 16.3296-26.9141 16.3296-41.8979ZM55.2091-16.5625 41.6745-16.5625 41.6745-9.13525C41.6745-7.58252 41.7866-6.58187 42.0109-6.1333 42.2352-5.68473 42.6665-5.46045 43.3049-5.46045 44.0985-5.46045 44.629-5.75806 44.8964-6.35327 45.1638-6.94849 45.2975-8.1001 45.2975-9.80811L45.2975-14.3369 55.2091-14.3369 55.2091-11.8008C55.2091-9.67871 55.0754-8.04834 54.808-6.90967 54.5406-5.771 53.9152-4.55469 52.9318-3.26074 51.9484-1.9668 50.7019-0.996338 49.1923-0.349365 47.6827 0.297607 45.7892 0.621094 43.5119 0.621094 41.3036 0.621094 39.354 0.301921 37.6632-0.336426 35.9725-0.974772 34.657-1.85034 33.7167-2.96313 32.7764-4.07593 32.1252-5.30086 31.7629-6.63794 31.4006-7.97502 31.2194-9.92025 31.2194-12.4736L31.2194-22.4888C31.2194-25.4907 31.6248-27.8586 32.4357-29.5925 33.2466-31.3264 34.575-32.6549 36.4211-33.5779 38.2671-34.5009 40.3892-34.9624 42.7873-34.9624 45.7202-34.9624 48.1399-34.406 50.0463-33.2932 51.9527-32.1804 53.2898-30.7053 54.0575-28.8679 54.8253-27.0305 55.2091-24.4469 55.2091-21.1172ZM44.7282-22.1523 44.7282-24.6626C44.7282-26.4396 44.6333-27.5869 44.4435-28.1045 44.2537-28.6221 43.8656-28.8809 43.279-28.8809 42.5544-28.8809 42.1058-28.6609 41.9333-28.2209 41.7607-27.781 41.6745-26.5949 41.6745-24.6626L41.6745-22.1523ZM69.3184-34.3413 68.9043-29.8254C70.4225-33.0598 72.6222-34.7721 75.5034-34.9624L75.5034-22.877C73.5884-22.877 72.1823-22.6182 71.2852-22.1006 70.388-21.583 69.8359-20.8627 69.6289-19.9397 69.4219-19.0167 69.3184-16.8903 69.3184-13.5605L69.3184 0 58.8633 0 58.8633-34.3413ZM88.485-41.8979 88.485-31.9799C89.3477-32.9827 90.3095-33.7305 91.3705-34.2232 92.4316-34.716 93.5832-34.9624 94.8254-34.9624 96.2573-34.9624 97.4995-34.7381 98.5519-34.2896 99.6043-33.841 100.407-33.2113 100.959-32.4004 101.511-31.5895 101.843-30.7959 101.955-30.0195 102.067-29.2432 102.123-27.5869 102.123-25.0508L102.123-9.5752C102.123-7.05631 101.955-5.18009 101.619-3.94653 101.282-2.71297 100.493-1.64331 99.2507-0.737549 98.0085 0.168213 96.5334 0.621094 94.8254 0.621094 93.6004 0.621094 92.4574 0.353139 91.3964-0.18277 90.3354-0.718679 89.3649-1.52254 88.485-2.59436L87.8122 0 78.03 0 78.03-41.8979ZM91.6681-24.585C91.6681-26.362 91.556-27.5222 91.3317-28.0657 91.1074-28.6091 90.6675-28.8809 90.0119-28.8809 89.3735-28.8809 88.9595-28.6436 88.7697-28.1692 88.5799-27.6947 88.485-26.5 88.485-24.585L88.485-9.78223C88.485-7.9362 88.5929-6.75439 88.8085-6.23682 89.0242-5.71924 89.4512-5.46045 90.0895-5.46045 90.7451-5.46045 91.1721-5.72786 91.3705-6.2627 91.5689-6.79753 91.6681-8.08284 91.6681-10.1187ZM141.245-41.8979 135.701 0 119.151 0 112.856-41.8979 124.346-41.8979C125.682-30.3568 126.635-20.5918 127.206-12.603 127.769-20.677 128.366-27.8449 128.999-34.1068L129.755-41.8979Z" fill="#00B050" transform="translate(35.596 73)"/></g></g><text fill="#00B050" font-family="Impact,Impact_MSFontService,sans-serif" font-weight="400" font-stretch="condensed" font-size="53" transform="translate(568.634 364)">Herb V</text><path d="M31.1417 12.2802C37.2357 26.3079 38.7557 48.6345 34.8522 66.7795" stroke="#00B050" stroke-width="3" stroke-miterlimit="8" fill="none" fill-rule="evenodd" transform="matrix(-1 0 0 1 713.5 298.5)"/><path d="M676.5 309.5 678.275 308.985 676.635 308.134 678.476 307.976 677.033 306.821 678.87 307.025 677.68 305.611 679.442 306.17 678.55 304.55 680.169 305.442 679.611 303.68 681.025 304.87 680.821 303.033 681.976 304.476 682.134 302.635 682.985 304.275 683.5 302.5 684.015 304.275 684.866 302.635 685.024 304.476 686.179 303.033 685.975 304.87 687.389 303.68 686.831 305.442 688.45 304.55 687.558 306.17 689.32 305.611 688.13 307.025 689.967 306.821 688.524 307.976 690.366 308.134 688.725 308.985 690.5 309.5 688.725 310.015 690.366 310.866 688.524 311.024 689.967 312.179 688.13 311.975 689.32 313.389 687.558 312.831 688.45 314.45 686.831 313.558 687.389 315.32 685.975 314.13 686.179 315.967 685.024 314.524 684.866 316.366 684.015 314.725 683.5 316.5 682.985 314.725 682.134 316.366 681.976 314.524 680.821 315.967 681.025 314.13 679.611 315.32 680.169 313.558 678.55 314.45 679.442 312.831 677.68 313.389 678.87 311.975 677.033 312.179 678.476 311.024 676.635 310.866 678.275 310.015Z" stroke="#F2F2F2" stroke-width="1.33333" stroke-miterlimit="8" fill="#F6F3C0" fill-rule="evenodd"/></g></svg>